<svg xmlns="http://www.w3.org/2000/svg" version="1.1" xmlns:xlink="http://www.w3.org/1999/xlink" xmlns:svgjs="http://svgjs.dev/svgjs" width="2000" height="1500" viewBox="0 0 2000 1500"><rect width="2000" height="1500" fill="#000000"></rect><g transform="matrix(0.75,0,0,0.75,249.090909090909,437.9069517716216)"><svg viewBox="0 0 396 164" data-background-color="#ffffff" preserveAspectRatio="xMidYMid meet" height="828" width="2000" xmlns="http://www.w3.org/2000/svg" xmlns:xlink="http://www.w3.org/1999/xlink"><g id="tight-bounds" transform="matrix(1,0,0,1,0.2400000000000091,0.4207083888149157)"><svg viewBox="0 0 395.52 163.15858322237017" height="163.15858322237017" width="395.52"><g><svg viewBox="0 0 395.52 163.15858322237017" height="163.15858322237017" width="395.52"><g><svg viewBox="0 0 395.52 163.15858322237017" height="163.15858322237017" width="395.52"><g id="textblocktransform"><svg viewBox="0 0 395.52 163.15858322237017" height="163.15858322237017" width="395.52" id="textblock"><g><svg viewBox="0 0 395.52 163.15858322237017" height="163.15858322237017" width="395.52"><g transform="matrix(1,0,0,1,0,0)"><svg width="395.52" viewBox="3.17 -36.99 91.67999999999999 37.82" height="163.15858322237017" data-palette-color="#3949fd"><path d="M16.31-21.04L15.41-21Q15.11-14.09 15.11-6.79L15.11-6.79 15.11 0.49 13.33 0.49 12.72 0.46 4.05 0.54Q3.22 0.54 3.17 0.56L3.17 0.56Q3.17 0.54 3.27 0.15L3.27 0.15 3.27 0 3.3-0.1Q3.17-1.86 3.17-4.37L3.17-4.37 3.27-31.64 3.25-32.91 3.25-34.13 3.2-36.43Q3.2-36.67 3.47-36.94L3.47-36.94 6.81-36.94 8.76-36.96Q15.65-36.96 18.62-36.77 21.58-36.57 22.88-36.57L22.88-36.57Q23.58-32.37 24.98-25.44L24.98-25.44 26.71-16.7 27.56-16.7 30.69-32.67Q30.76-33.03 31.03-34.8 31.3-36.57 31.45-36.77L31.45-36.77 31.54-36.77 47.44-36.91 48.39-36.89 51.12-36.89Q51.34-36.79 51.37-35.99L51.37-35.99 51.61-26.76Q51.9-15.28 52.03-8.89L52.03-8.89Q52.03-3.96 51.88 0.37L51.88 0.37Q51.81 0.66 50.9 0.71L50.9 0.71 49.8 0.76Q48.49 0.81 47.85 0.81L47.85 0.81 46.58 0.81Q44.21 0.83 39.6 0.83L39.6 0.83Q38.75 0.07 38.75-5.71L38.75-5.71 38.79-13.38 38.79-15.36Q38.79-17.97 38.77-19.21L38.77-19.21 37.84-19.38Q37.04-16.43 34.74-6.23L34.74-6.23 34.52-5.25Q34.35-4.49 33.95-2.55 33.54-0.61 33.3 0.39L33.3 0.39Q33.01 0.73 30.71 0.73L30.71 0.73 30.4 0.73 27.66 0.66 26.17 0.68 25.02 0.68 23.1 0.71 22.41 0.71Q21.29 0.71 21.17 0.2L21.17 0.2 21.19 0.22 18.97-9.47Q18.87-9.84 18.53-11.07 18.19-12.3 18.14-13.13L18.14-13.13 16.31-21.04ZM56.27-21.12L56.35-33.2 56.27-35.3Q56.27-36.65 56.54-36.96L56.54-36.96Q57.2-36.99 59.04-36.99 60.89-36.99 62.23-36.96L62.23-36.96 65.67-36.91Q66.62-36.99 68.43-36.99 70.24-36.99 70.73-36.5L70.73-36.5Q70.6-30.54 70.6-22.34L70.6-22.34 71.46-22.19Q71.82-23.14 72.79-25.05 73.75-26.95 73.9-27.27L73.9-27.27 74.17-27.86Q74.27-28.08 75.06-29.75 75.85-31.42 76.68-33.51 77.51-35.6 78.46-36.79L78.46-36.79Q80.17-36.82 82.63-36.82 85.08-36.82 88.35-36.73 91.62-36.65 93.26-36.65L93.26-36.65Q86.3-24.07 83.37-19.24L83.37-19.24 83.93-18.33Q84.93-17.09 88.3-11.23 91.67-5.37 93.19-2.91L93.19-2.91 93.77-1.95Q94.85-0.17 94.85 0.07 94.85 0.32 94.7 0.51L94.7 0.51 94.55 0.51Q93.19 0.46 92.34 0.46 91.5 0.46 90.13 0.51L90.13 0.51 79.17 0.51Q75.41-6.52 71.36-14.75L71.36-14.75Q71.16-12.79 70.77-5.52L70.77-5.52 70.77-5.2 70.82 0.34Q70.53 0.78 68.26 0.78L68.26 0.78 67.75 0.76 66.43 0.76 59.52 0.81 57.27 0.81Q56.59 0.81 56.3 0.29L56.3 0.29 56.22 0.22 56.22-3.49 56.27-7.32 56.27-21.12Z" opacity="1" transform="matrix(1,0,0,1,0,0)" fill="#ffffff" class="wordmark-text-0" data-fill-palette-color="primary" id="text-0"></path></svg></g></svg></g></svg></g></svg></g></svg></g><defs></defs></svg><rect width="395.52" height="163.15858322237017" fill="none" stroke="none" visibility="hidden"></rect></g></svg></g></svg>